# This file uses centimeters as units for non-parametric coordinates.

mtllib Ablock1.mtl
g default
v -98.000198 -50.000000 198.000198
v -98.000198 -48.000198 200.000000
v -100.000000 -48.000198 198.000198
v 100.000000 -48.000198 198.000198
v 98.000198 -48.000198 200.000000
v 98.000198 -50.000000 198.000198
v -100.000000 48.000198 198.000198
v -98.000198 48.000198 200.000000
v -98.000198 50.000000 198.000198
v 98.000198 50.000000 198.000198
v 98.000198 48.000198 200.000000
v 100.000000 48.000198 198.000198
v -100.000000 48.000198 -198.000198
v -98.000198 50.000000 -198.000198
v -98.000198 48.000198 -200.000000
v 98.000198 48.000198 -200.000000
v 98.000198 50.000000 -198.000198
v 100.000000 48.000198 -198.000198
v -100.000000 -48.000198 -198.000198
v -98.000198 -48.000198 -200.000000
v -98.000198 -50.000000 -198.000198
v 98.000198 -50.000000 -198.000198
v 98.000198 -48.000198 -200.000000
v 100.000000 -48.000198 -198.000198
vt 0.377500 0.000000
vt 0.377500 0.004999
vt 0.626250 0.005000
vt 0.622500 0.005000
vt 0.373750 0.005000
vt 0.622500 -0.000000
vt 0.167029 0.614699
vt 0.167029 0.004917
vt 0.314856 0.004917
vt 0.314856 0.614699
vt 0.163950 0.614699
vt 0.163950 0.004917
vt 0.314856 0.001837
vt 0.167029 0.001837
vt 0.317935 0.614699
vt 0.317935 0.004917
vt 0.167029 0.617779
vt 0.314856 0.617779
vt 0.005071 0.614699
vt 0.005071 0.004917
vt 0.152898 0.004917
vt 0.152898 0.614699
vt 0.001992 0.004917
vt 0.001992 0.614699
vt 0.005071 0.001837
vt 0.152898 0.001837
vt 0.155977 0.004917
vt 0.155977 0.614699
vt 0.152898 0.617779
vt 0.005071 0.617779
vt 0.325713 0.004917
vt 0.627525 0.004917
vt 0.627525 0.614699
vt 0.325713 0.614699
vt 0.325713 0.001837
vt 0.627525 0.001837
vt 0.325713 0.617779
vt 0.627525 0.617779
vt 0.635596 0.004917
vt 0.937408 0.004917
vt 0.937408 0.614699
vt 0.635596 0.614699
vt 0.635596 0.001837
vt 0.937408 0.001837
vt 0.850182 0.920503
vt 0.850182 0.618691
vt 0.998008 0.618691
vt 0.998008 0.920503
vt 0.696220 0.920502
vt 0.696220 0.618691
vt 0.844046 0.618691
vt 0.844046 0.920502
vn -0.707107 -0.707107 0.000000
vn -0.707107 -0.707107 0.000000
vn -0.707107 -0.707107 0.000000
vn -0.707107 -0.707107 0.000000
vn 0.000000 -0.707107 0.707107
vn 0.000000 -0.707107 0.707107
vn 0.000000 -0.707107 0.707107
vn 0.000000 -0.707107 0.707107
vn -0.707108 0.000000 0.707106
vn -0.707108 0.000000 0.707106
vn -0.707108 0.000000 0.707106
vn -0.707108 0.000000 0.707106
vn 0.707107 -0.707107 0.000000
vn 0.707107 -0.707107 0.000000
vn 0.707107 -0.707107 0.000000
vn 0.707107 -0.707107 0.000000
vn 0.707108 0.000000 0.707106
vn 0.707108 0.000000 0.707106
vn 0.707108 0.000000 0.707106
vn 0.707108 0.000000 0.707106
vn -0.707107 0.707107 0.000000
vn -0.707107 0.707107 0.000000
vn -0.707107 0.707107 0.000000
vn -0.707107 0.707107 0.000000
vn 0.000000 0.707107 0.707107
vn 0.000000 0.707107 0.707107
vn 0.000000 0.707107 0.707107
vn 0.000000 0.707107 0.707107
vn 0.707107 0.707107 0.000000
vn 0.707107 0.707107 0.000000
vn 0.707107 0.707107 0.000000
vn 0.707107 0.707107 0.000000
vn -0.707108 0.000000 -0.707106
vn -0.707108 0.000000 -0.707106
vn -0.707108 0.000000 -0.707106
vn -0.707108 0.000000 -0.707106
vn 0.000000 0.707107 -0.707107
vn 0.000000 0.707107 -0.707107
vn 0.000000 0.707107 -0.707107
vn 0.000000 0.707107 -0.707107
vn 0.707108 0.000000 -0.707106
vn 0.707108 0.000000 -0.707106
vn 0.707108 0.000000 -0.707106
vn 0.707108 0.000000 -0.707106
vn 0.000000 -0.707107 -0.707107
vn 0.000000 -0.707107 -0.707107
vn 0.000000 -0.707107 -0.707107
vn 0.000000 -0.707107 -0.707107
vn 0.000000 0.000000 1.000000
vn 0.000000 0.000000 1.000000
vn 0.000000 0.000000 1.000000
vn 0.000000 0.000000 1.000000
vn 0.000000 1.000000 0.000000
vn 0.000000 1.000000 0.000000
vn 0.000000 1.000000 0.000000
vn 0.000000 1.000000 0.000000
vn 0.000000 0.000000 -1.000000
vn 0.000000 0.000000 -1.000000
vn 0.000000 0.000000 -1.000000
vn 0.000000 0.000000 -1.000000
vn 0.000000 -1.000000 0.000000
vn 0.000000 -1.000000 0.000000
vn 0.000000 -1.000000 0.000000
vn 0.000000 -1.000000 0.000000
vn 1.000000 0.000000 0.000000
vn 1.000000 0.000000 0.000000
vn 1.000000 0.000000 0.000000
vn 1.000000 0.000000 0.000000
vn -1.000000 0.000000 0.000000
vn -1.000000 0.000000 0.000000
vn -1.000000 0.000000 0.000000
vn -1.000000 0.000000 0.000000
vn -0.577344 -0.577353 0.577353
vn -0.577344 -0.577353 0.577353
vn -0.577344 -0.577353 0.577353
vn 0.577344 -0.577353 0.577353
vn 0.577344 -0.577353 0.577353
vn 0.577344 -0.577353 0.577353
vn -0.577344 0.577353 0.577353
vn -0.577344 0.577353 0.577353
vn -0.577344 0.577353 0.577353
vn 0.577344 0.577353 0.577353
vn 0.577344 0.577353 0.577353
vn 0.577344 0.577353 0.577353
vn -0.577344 0.577353 -0.577353
vn -0.577344 0.577353 -0.577353
vn -0.577344 0.577353 -0.577353
vn 0.577344 0.577353 -0.577353
vn 0.577344 0.577353 -0.577353
vn 0.577344 0.577353 -0.577353
vn -0.577344 -0.577353 -0.577353
vn -0.577344 -0.577353 -0.577353
vn -0.577344 -0.577353 -0.577353
vn 0.577344 -0.577353 -0.577353
vn 0.577344 -0.577353 -0.577353
vn 0.577344 -0.577353 -0.577353
s off
g pCube1
usemtl lambert2SG
f 1/23/1 3/20/2 19/19/3 21/24/4
f 2/2/5 1/1/6 6/6/7 5/4/8
f 3/20/9 2/25/10 8/26/11 7/21/12
f 4/7/13 6/11/14 22/12/15 24/8/16
f 5/17/17 4/7/18 12/10/19 11/18/20
f 7/21/21 9/27/22 14/28/23 13/22/24
f 9/31/25 8/35/26 11/36/27 10/32/28
f 10/15/29 12/10/30 18/9/31 17/16/32
f 13/22/33 15/29/34 20/30/35 19/19/36
f 15/37/37 14/34/38 17/33/39 16/38/40
f 16/13/41 18/9/42 24/8/43 23/14/44
f 21/39/45 20/43/46 23/44/47 22/40/48
f 2/45/49 5/46/50 11/47/51 8/48/52
f 9/31/53 10/32/54 17/33/55 14/34/56
f 15/49/57 16/50/58 23/51/59 20/52/60
f 21/39/61 22/40/62 6/41/63 1/42/64
f 4/7/65 24/8/66 18/9/67 12/10/68
f 19/19/69 3/20/70 7/21/71 13/22/72
f 1/1/73 2/2/74 3/5/75
f 4/3/76 5/4/77 6/6/78
f 7/21/79 8/26/80 9/27/81
f 10/15/82 11/18/83 12/10/84
f 13/22/85 14/28/86 15/29/87
f 16/13/88 17/16/89 18/9/90
f 19/19/91 20/30/92 21/24/93
f 22/12/94 23/14/95 24/8/96
